<?xml version="1.0" encoding="UTF-8"?>
<svg xmlns="http://www.w3.org/2000/svg" xmlns:xlink="http://www.w3.org/1999/xlink" width="32px" height="32px" viewBox="0 0 32 32" version="1.1">
<g id="surface1">
<path style=" stroke:none;fill-rule:evenodd;fill:rgb(58.039216%,32.156863%,81.568627%);fill-opacity:1;" d="M 18.625 10.855469 C 18.019531 10.941406 17.695312 11.296875 17.738281 11.832031 C 17.765625 12.148438 17.875 12.335938 18.074219 12.398438 C 18.113281 12.410156 18.1875 12.476562 18.246094 12.550781 C 18.316406 12.640625 18.425781 12.714844 18.621094 12.808594 C 18.773438 12.882812 18.953125 12.992188 19.023438 13.058594 C 19.09375 13.121094 19.234375 13.222656 19.335938 13.28125 C 19.472656 13.355469 19.554688 13.433594 19.640625 13.5625 C 19.707031 13.660156 19.816406 13.78125 19.886719 13.828125 C 19.957031 13.875 20.046875 13.949219 20.085938 13.988281 C 20.121094 14.03125 20.253906 14.164062 20.378906 14.289062 C 20.5 14.410156 20.625 14.5625 20.648438 14.625 C 20.675781 14.6875 20.769531 14.816406 20.863281 14.910156 C 21.039062 15.09375 21.164062 15.289062 21.195312 15.429688 C 21.207031 15.476562 21.296875 15.617188 21.390625 15.746094 C 21.488281 15.875 21.582031 16.035156 21.601562 16.101562 C 21.707031 16.496094 21.816406 16.761719 21.914062 16.875 C 21.992188 16.964844 22.109375 17.363281 22.160156 17.710938 C 22.183594 17.886719 22.246094 18.226562 22.292969 18.464844 C 22.425781 19.125 22.441406 20.277344 22.320312 20.609375 C 22.257812 20.78125 22.238281 20.898438 22.238281 21.09375 C 22.238281 21.535156 22.0625 22.3125 21.871094 22.6875 C 21.816406 22.800781 21.722656 23.035156 21.664062 23.207031 C 21.582031 23.457031 21.542969 23.539062 21.457031 23.609375 C 21.339844 23.703125 21.183594 23.949219 21.183594 24.042969 C 21.183594 24.140625 21.058594 24.351562 20.921875 24.472656 C 20.851562 24.539062 20.75 24.667969 20.695312 24.761719 C 20.644531 24.855469 20.535156 24.984375 20.453125 25.050781 C 20.375 25.113281 20.28125 25.195312 20.25 25.230469 C 20.15625 25.339844 19.917969 25.578125 19.8125 25.675781 C 19.753906 25.726562 19.679688 25.824219 19.644531 25.898438 C 19.605469 25.972656 19.515625 26.101562 19.441406 26.183594 L 19.304688 26.332031 L 19.34375 26.582031 C 19.4375 27.175781 19.984375 27.398438 20.894531 27.207031 C 21.152344 27.152344 21.480469 27.09375 21.628906 27.070312 C 21.886719 27.035156 22.210938 26.921875 22.253906 26.855469 C 22.265625 26.835938 22.480469 26.753906 22.734375 26.671875 C 23.164062 26.535156 23.375 26.429688 23.535156 26.28125 C 23.570312 26.246094 23.710938 26.167969 23.847656 26.101562 C 24.007812 26.023438 24.144531 25.929688 24.230469 25.835938 C 24.304688 25.757812 24.417969 25.664062 24.480469 25.632812 C 24.582031 25.582031 24.84375 25.351562 25.105469 25.089844 C 25.15625 25.039062 25.371094 24.824219 25.578125 24.617188 C 25.878906 24.316406 25.980469 24.191406 26.074219 24.003906 C 26.140625 23.878906 26.230469 23.734375 26.277344 23.691406 C 26.324219 23.648438 26.398438 23.578125 26.441406 23.539062 C 26.488281 23.496094 26.558594 23.347656 26.621094 23.15625 C 26.691406 22.949219 26.769531 22.789062 26.863281 22.664062 C 26.980469 22.503906 27.015625 22.417969 27.113281 22.046875 C 27.175781 21.808594 27.285156 21.480469 27.359375 21.316406 C 27.566406 20.855469 27.582031 20.6875 27.582031 19.121094 C 27.582031 17.570312 27.570312 17.457031 27.351562 16.976562 C 27.207031 16.664062 27.132812 16.421875 27.085938 16.128906 C 27.0625 15.964844 26.96875 15.765625 26.867188 15.648438 C 26.789062 15.5625 26.652344 15.265625 26.589844 15.042969 C 26.558594 14.945312 26.496094 14.855469 26.390625 14.753906 C 26.285156 14.65625 26.191406 14.519531 26.101562 14.332031 C 25.996094 14.121094 25.917969 14.011719 25.765625 13.875 C 25.660156 13.773438 25.542969 13.644531 25.507812 13.585938 C 25.472656 13.53125 25.394531 13.449219 25.332031 13.40625 C 25.273438 13.363281 25.160156 13.253906 25.085938 13.164062 C 25.007812 13.074219 24.828125 12.914062 24.6875 12.808594 C 24.546875 12.703125 24.402344 12.574219 24.363281 12.523438 C 24.320312 12.460938 24.207031 12.394531 24.03125 12.320312 C 23.839844 12.242188 23.722656 12.167969 23.613281 12.0625 C 23.5 11.945312 23.398438 11.886719 23.15625 11.792969 C 22.988281 11.730469 22.828125 11.65625 22.800781 11.628906 C 22.777344 11.605469 22.75 11.585938 22.738281 11.585938 C 22.730469 11.585938 22.671875 11.550781 22.609375 11.507812 C 22.539062 11.457031 22.347656 11.394531 22.117188 11.34375 C 21.546875 11.210938 21.410156 11.171875 21.195312 11.070312 C 20.8125 10.886719 19.296875 10.757812 18.625 10.855469 M 19.789062 17.371094 C 19.71875 17.421875 19.632812 17.496094 19.597656 17.539062 C 19.558594 17.582031 19.476562 17.65625 19.410156 17.707031 C 19.339844 17.761719 19.25 17.882812 19.183594 18.019531 C 19.121094 18.144531 19.015625 18.304688 18.949219 18.378906 C 18.882812 18.453125 18.765625 18.625 18.6875 18.765625 C 18.589844 18.945312 18.511719 19.042969 18.410156 19.113281 C 18.332031 19.171875 18.226562 19.28125 18.175781 19.363281 C 18.125 19.445312 18.046875 19.539062 17.996094 19.574219 C 17.894531 19.640625 17.71875 19.820312 17.585938 19.984375 C 17.535156 20.046875 17.449219 20.121094 17.394531 20.148438 C 17.339844 20.175781 17.230469 20.265625 17.152344 20.351562 C 17.046875 20.464844 16.9375 20.535156 16.734375 20.625 C 16.550781 20.703125 16.417969 20.789062 16.320312 20.886719 C 16.152344 21.054688 16.074219 21.097656 15.839844 21.152344 C 15.609375 21.203125 15.46875 21.265625 15.328125 21.375 C 15.125 21.53125 14.894531 21.613281 14.355469 21.714844 C 14.210938 21.742188 13.992188 21.8125 13.867188 21.875 C 13.714844 21.945312 13.589844 21.984375 13.5 21.984375 C 13.421875 21.984375 13.074219 22.015625 12.726562 22.050781 C 12.128906 22.113281 12.074219 22.113281 11.71875 22.066406 C 11.511719 22.039062 11.191406 22.007812 11.007812 21.996094 C 10.742188 21.980469 10.59375 21.949219 10.289062 21.847656 C 10.078125 21.777344 9.734375 21.6875 9.53125 21.644531 C 9.144531 21.566406 9.023438 21.519531 8.757812 21.328125 C 8.671875 21.265625 8.5625 21.207031 8.515625 21.195312 C 8.289062 21.144531 8.046875 21.035156 7.957031 20.941406 C 7.902344 20.886719 7.726562 20.765625 7.566406 20.671875 C 7.410156 20.578125 7.207031 20.441406 7.121094 20.367188 C 7.03125 20.292969 6.878906 20.179688 6.777344 20.117188 C 6.675781 20.050781 6.550781 19.9375 6.503906 19.867188 C 6.453125 19.792969 6.351562 19.699219 6.253906 19.644531 C 6.070312 19.542969 6.003906 19.472656 5.972656 19.371094 C 5.863281 19.019531 4.851562 19 4.550781 19.34375 C 4.308594 19.617188 4.363281 20.679688 4.65625 21.316406 C 4.742188 21.507812 4.839844 21.789062 4.894531 22.03125 C 4.992188 22.441406 5.042969 22.566406 5.167969 22.734375 C 5.210938 22.789062 5.300781 22.96875 5.371094 23.136719 C 5.472656 23.371094 5.535156 23.46875 5.644531 23.566406 C 5.730469 23.644531 5.832031 23.785156 5.898438 23.921875 C 5.972656 24.070312 6.058594 24.183594 6.15625 24.265625 C 6.234375 24.332031 6.328125 24.4375 6.359375 24.503906 C 6.390625 24.570312 6.480469 24.6875 6.5625 24.769531 C 6.640625 24.847656 6.742188 24.960938 6.78125 25.019531 C 6.824219 25.082031 6.921875 25.152344 7.019531 25.199219 C 7.125 25.246094 7.230469 25.328125 7.320312 25.433594 C 7.394531 25.523438 7.542969 25.648438 7.648438 25.710938 C 7.753906 25.777344 7.855469 25.855469 7.871094 25.890625 C 7.890625 25.921875 8.050781 26.023438 8.226562 26.113281 C 8.402344 26.207031 8.605469 26.328125 8.679688 26.390625 C 8.855469 26.535156 8.871094 26.542969 9.285156 26.671875 C 9.484375 26.734375 9.742188 26.835938 9.859375 26.894531 C 10.191406 27.070312 10.59375 27.144531 11.859375 27.261719 C 12.074219 27.28125 12.242188 27.316406 12.367188 27.367188 C 12.542969 27.445312 12.5625 27.445312 12.734375 27.402344 C 13.207031 27.289062 13.390625 27.257812 13.761719 27.230469 C 14.464844 27.183594 15.21875 27.023438 15.433594 26.871094 C 15.480469 26.839844 15.683594 26.761719 15.878906 26.703125 C 16.359375 26.5625 16.347656 26.566406 16.511719 26.433594 C 16.695312 26.285156 16.839844 26.199219 17.027344 26.128906 C 17.109375 26.097656 17.246094 26.011719 17.332031 25.9375 C 17.417969 25.863281 17.539062 25.777344 17.597656 25.742188 C 17.660156 25.710938 17.804688 25.589844 17.917969 25.476562 C 18.035156 25.359375 18.226562 25.207031 18.347656 25.136719 C 18.542969 25.023438 18.785156 24.773438 18.785156 24.683594 C 18.785156 24.667969 18.875 24.566406 18.984375 24.457031 C 19.097656 24.347656 19.242188 24.164062 19.3125 24.046875 C 19.378906 23.933594 19.460938 23.816406 19.492188 23.796875 C 19.582031 23.734375 19.707031 23.53125 19.78125 23.339844 C 19.816406 23.246094 19.921875 23.066406 20.015625 22.941406 C 20.179688 22.726562 20.382812 22.242188 20.382812 22.078125 C 20.382812 22.050781 20.410156 22 20.445312 21.972656 C 20.570312 21.855469 20.671875 21.554688 20.738281 21.082031 C 20.824219 20.457031 20.921875 19.933594 20.996094 19.664062 C 21.164062 19.050781 21.054688 18.1875 20.753906 17.742188 C 20.511719 17.386719 20.460938 17.347656 20.21875 17.3125 C 19.933594 17.269531 19.925781 17.269531 19.789062 17.371094 M 20.34375 17.503906 C 20.503906 17.5625 20.75 17.945312 20.796875 18.210938 C 20.839844 18.464844 20.84375 19.449219 20.800781 19.667969 C 20.785156 19.753906 20.742188 20.097656 20.707031 20.433594 C 20.613281 21.273438 20.570312 21.457031 20.402344 21.78125 C 20.320312 21.929688 20.234375 22.140625 20.207031 22.25 C 20.144531 22.480469 20.011719 22.753906 19.933594 22.808594 C 19.84375 22.871094 19.726562 23.089844 19.648438 23.34375 C 19.59375 23.519531 19.554688 23.585938 19.472656 23.648438 C 19.414062 23.691406 19.296875 23.832031 19.214844 23.960938 C 19.132812 24.085938 19.007812 24.242188 18.933594 24.308594 C 18.859375 24.375 18.792969 24.445312 18.785156 24.460938 C 18.675781 24.691406 18.167969 25.183594 18.039062 25.183594 C 18.035156 25.183594 17.933594 25.277344 17.820312 25.390625 C 17.703125 25.5 17.550781 25.625 17.480469 25.660156 C 17.410156 25.695312 17.304688 25.777344 17.246094 25.84375 C 17.171875 25.929688 17.082031 25.988281 16.933594 26.039062 C 16.691406 26.125 16.492188 26.234375 16.398438 26.335938 C 16.308594 26.4375 16.136719 26.515625 15.886719 26.574219 C 15.664062 26.625 15.328125 26.746094 15.15625 26.839844 C 14.933594 26.957031 14.152344 27.105469 13.734375 27.105469 C 13.582031 27.105469 13.253906 27.132812 13.011719 27.167969 C 12.601562 27.230469 12.550781 27.230469 12.371094 27.1875 C 12.265625 27.160156 11.9375 27.125 11.648438 27.105469 C 10.589844 27.035156 10.429688 27.003906 10.027344 26.8125 C 9.886719 26.746094 9.617188 26.648438 9.429688 26.59375 C 9.042969 26.488281 8.980469 26.457031 8.847656 26.335938 C 8.722656 26.21875 8.367188 26.015625 8.242188 25.992188 C 8.183594 25.980469 8.066406 25.902344 7.953125 25.792969 C 7.84375 25.691406 7.722656 25.597656 7.679688 25.585938 C 7.601562 25.558594 7.359375 25.328125 7.359375 25.277344 C 7.359375 25.261719 7.292969 25.214844 7.210938 25.179688 C 7.128906 25.140625 6.996094 25.042969 6.921875 24.960938 C 6.84375 24.882812 6.726562 24.757812 6.660156 24.6875 C 6.589844 24.617188 6.492188 24.492188 6.4375 24.410156 C 6.382812 24.332031 6.265625 24.203125 6.179688 24.128906 C 6.050781 24.023438 6.007812 23.960938 5.972656 23.832031 C 5.9375 23.714844 5.882812 23.625 5.789062 23.535156 C 5.699219 23.449219 5.601562 23.292969 5.484375 23.054688 C 5.394531 22.859375 5.289062 22.667969 5.257812 22.625 C 5.132812 22.460938 5.050781 22.222656 4.914062 21.597656 C 4.886719 21.460938 4.820312 21.265625 4.765625 21.15625 C 4.488281 20.570312 4.417969 19.65625 4.632812 19.414062 C 4.890625 19.125 5.6875 19.171875 5.921875 19.496094 C 5.972656 19.566406 6.089844 19.675781 6.175781 19.734375 C 6.261719 19.792969 6.367188 19.890625 6.410156 19.957031 C 6.480469 20.054688 6.578125 20.136719 6.878906 20.34375 C 6.925781 20.371094 7.003906 20.441406 7.058594 20.496094 C 7.113281 20.550781 7.289062 20.664062 7.453125 20.75 C 7.613281 20.835938 7.761719 20.933594 7.777344 20.964844 C 7.816406 21.035156 8.0625 21.183594 8.144531 21.183594 C 8.222656 21.183594 8.542969 21.351562 8.71875 21.484375 C 8.875 21.605469 9.152344 21.707031 9.4375 21.742188 C 9.628906 21.769531 9.9375 21.867188 10.003906 21.921875 C 10.414062 22.265625 13.390625 22.273438 14.132812 21.933594 C 14.191406 21.90625 14.453125 21.832031 14.71875 21.761719 C 15.246094 21.621094 15.320312 21.589844 15.515625 21.429688 C 15.632812 21.328125 15.878906 21.226562 16.144531 21.167969 C 16.195312 21.15625 16.289062 21.089844 16.355469 21.023438 C 16.429688 20.941406 16.578125 20.84375 16.769531 20.753906 C 17.09375 20.597656 17.183594 20.542969 17.183594 20.484375 C 17.183594 20.464844 17.300781 20.367188 17.441406 20.269531 C 17.582031 20.171875 17.695312 20.074219 17.695312 20.054688 C 17.695312 20.039062 17.820312 19.894531 17.976562 19.742188 C 18.128906 19.585938 18.308594 19.40625 18.371094 19.335938 C 18.433594 19.269531 18.527344 19.179688 18.578125 19.132812 C 18.628906 19.089844 18.707031 18.984375 18.746094 18.898438 C 18.789062 18.816406 18.898438 18.660156 18.992188 18.550781 C 19.089844 18.445312 19.199219 18.273438 19.238281 18.175781 C 19.339844 17.921875 19.382812 17.867188 19.566406 17.746094 C 19.65625 17.683594 19.769531 17.589844 19.824219 17.535156 C 19.925781 17.425781 20.089844 17.417969 20.34375 17.503906 "/>
<path style=" stroke:none;fill-rule:evenodd;fill:rgb(98.823529%,65.098039%,6.666667%);fill-opacity:1;" d="M 19.089844 4.277344 C 18.859375 4.324219 18.578125 4.359375 18.289062 4.371094 C 17.566406 4.398438 17.230469 4.472656 16.574219 4.75 C 16.425781 4.8125 16.21875 4.886719 16.113281 4.914062 C 15.90625 4.96875 15.78125 5.035156 15.644531 5.164062 C 15.539062 5.261719 15.359375 5.355469 15.144531 5.417969 C 14.957031 5.472656 14.785156 5.582031 14.785156 5.644531 C 14.785156 5.707031 14.660156 5.808594 14.441406 5.917969 C 14.332031 5.976562 14.203125 6.066406 14.160156 6.117188 C 14.117188 6.171875 13.953125 6.316406 13.796875 6.445312 C 13.496094 6.695312 13.183594 7.027344 13.183594 7.09375 C 13.183594 7.117188 13.105469 7.222656 13.011719 7.324219 C 12.914062 7.429688 12.800781 7.570312 12.757812 7.640625 C 12.710938 7.710938 12.617188 7.8125 12.546875 7.871094 C 12.445312 7.953125 12.40625 8.011719 12.363281 8.15625 C 12.300781 8.378906 12.160156 8.652344 12.03125 8.804688 C 11.964844 8.882812 11.882812 9.058594 11.789062 9.339844 C 11.714844 9.566406 11.605469 9.847656 11.554688 9.957031 C 11.386719 10.316406 11.324219 10.703125 11.265625 11.761719 C 11.246094 12.089844 11.226562 12.214844 11.164062 12.363281 L 11.085938 12.554688 L 11.175781 12.8125 C 11.238281 13 11.261719 13.136719 11.261719 13.304688 C 11.265625 13.746094 11.476562 14.042969 11.859375 14.132812 L 12.089844 14.1875 L 12.285156 14.046875 C 12.394531 13.96875 12.542969 13.859375 12.613281 13.808594 C 12.6875 13.753906 12.796875 13.632812 12.851562 13.53125 C 12.910156 13.433594 13.007812 13.308594 13.066406 13.257812 C 13.125 13.203125 13.226562 13.050781 13.292969 12.914062 C 13.367188 12.757812 13.476562 12.601562 13.589844 12.484375 C 13.6875 12.386719 13.800781 12.238281 13.839844 12.15625 C 13.929688 11.980469 14.4375 11.476562 14.632812 11.367188 C 14.707031 11.324219 14.8125 11.234375 14.863281 11.167969 C 14.953125 11.046875 15.3125 10.785156 15.378906 10.785156 C 15.398438 10.785156 15.480469 10.71875 15.5625 10.640625 C 15.742188 10.46875 15.847656 10.410156 16.136719 10.332031 C 16.394531 10.257812 16.566406 10.175781 16.652344 10.085938 C 16.71875 10.011719 16.949219 9.929688 17.4375 9.808594 C 17.621094 9.761719 17.824219 9.703125 17.886719 9.675781 C 17.945312 9.652344 18.105469 9.613281 18.238281 9.597656 C 18.371094 9.578125 18.59375 9.535156 18.734375 9.5 C 18.875 9.46875 19.105469 9.441406 19.242188 9.441406 C 19.378906 9.441406 19.59375 9.421875 19.714844 9.402344 C 19.886719 9.375 20.027344 9.375 20.296875 9.402344 C 20.496094 9.421875 20.84375 9.453125 21.070312 9.464844 C 21.457031 9.488281 21.507812 9.5 21.761719 9.613281 C 22.042969 9.738281 22.253906 9.804688 22.800781 9.921875 C 23.046875 9.976562 23.179688 10.027344 23.375 10.144531 C 23.515625 10.226562 23.691406 10.3125 23.761719 10.335938 C 23.949219 10.394531 24.128906 10.507812 24.269531 10.652344 C 24.339844 10.726562 24.421875 10.785156 24.453125 10.785156 C 24.65625 10.785156 24.929688 10.941406 25.097656 11.152344 C 25.167969 11.238281 25.277344 11.347656 25.339844 11.390625 C 25.402344 11.4375 25.558594 11.570312 25.679688 11.691406 C 26.378906 12.378906 26.363281 12.371094 26.910156 12.367188 C 27.289062 12.363281 27.402344 12.324219 27.519531 12.160156 C 27.6875 11.925781 27.550781 10.242188 27.339844 10 C 27.25 9.890625 27.160156 9.664062 27.089844 9.34375 C 27.0625 9.210938 26.996094 9.03125 26.945312 8.945312 C 26.828125 8.742188 26.644531 8.375 26.578125 8.207031 C 26.550781 8.136719 26.445312 8 26.347656 7.898438 C 26.246094 7.796875 26.113281 7.628906 26.050781 7.523438 C 25.886719 7.253906 25.574219 6.878906 25.460938 6.820312 C 25.339844 6.753906 25.21875 6.632812 25.183594 6.539062 C 25.167969 6.5 25.082031 6.410156 24.992188 6.339844 C 24.902344 6.269531 24.792969 6.167969 24.75 6.117188 C 24.707031 6.0625 24.601562 5.984375 24.519531 5.945312 C 24.4375 5.90625 24.289062 5.796875 24.1875 5.703125 C 24.089844 5.609375 23.925781 5.5 23.824219 5.453125 C 23.722656 5.410156 23.578125 5.332031 23.5 5.277344 C 23.425781 5.226562 23.355469 5.183594 23.34375 5.183594 C 23.332031 5.183594 23.285156 5.15625 23.238281 5.125 C 23.191406 5.089844 23.035156 5.023438 22.894531 4.976562 C 22.753906 4.929688 22.484375 4.8125 22.292969 4.714844 C 22.101562 4.621094 21.878906 4.527344 21.796875 4.507812 C 21.554688 4.453125 20.933594 4.382812 20.6875 4.382812 C 20.566406 4.382812 20.371094 4.359375 20.257812 4.332031 C 20.058594 4.285156 19.488281 4.1875 19.457031 4.195312 C 19.445312 4.199219 19.28125 4.234375 19.089844 4.277344 "/>
<path style=" stroke:none;fill-rule:evenodd;fill:rgb(95.686275%,1.568627%,32.941176%);fill-opacity:1;" d="M 19.824219 17.535156 C 19.769531 17.589844 19.65625 17.683594 19.566406 17.746094 C 19.382812 17.867188 19.339844 17.921875 19.238281 18.175781 C 19.199219 18.273438 19.089844 18.445312 18.992188 18.550781 C 18.898438 18.660156 18.789062 18.816406 18.746094 18.898438 C 18.707031 18.984375 18.628906 19.089844 18.578125 19.132812 C 18.527344 19.179688 18.433594 19.269531 18.371094 19.335938 C 18.308594 19.40625 18.128906 19.585938 17.976562 19.742188 C 17.820312 19.894531 17.695312 20.039062 17.695312 20.054688 C 17.695312 20.074219 17.582031 20.171875 17.441406 20.269531 C 17.300781 20.367188 17.183594 20.464844 17.183594 20.484375 C 17.183594 20.542969 17.09375 20.597656 16.769531 20.753906 C 16.578125 20.84375 16.429688 20.941406 16.355469 21.023438 C 16.289062 21.089844 16.195312 21.15625 16.144531 21.167969 C 15.878906 21.226562 15.632812 21.328125 15.515625 21.429688 C 15.320312 21.589844 15.246094 21.621094 14.71875 21.761719 C 14.453125 21.832031 14.191406 21.90625 14.132812 21.933594 C 13.390625 22.273438 10.414062 22.265625 10.003906 21.921875 C 9.9375 21.867188 9.628906 21.769531 9.4375 21.742188 C 9.152344 21.707031 8.875 21.605469 8.71875 21.484375 C 8.542969 21.351562 8.222656 21.183594 8.144531 21.183594 C 8.0625 21.183594 7.816406 21.035156 7.777344 20.964844 C 7.761719 20.933594 7.613281 20.835938 7.453125 20.75 C 7.289062 20.664062 7.113281 20.550781 7.058594 20.496094 C 7.003906 20.441406 6.925781 20.371094 6.878906 20.34375 C 6.578125 20.136719 6.480469 20.054688 6.410156 19.957031 C 6.367188 19.890625 6.261719 19.792969 6.175781 19.734375 C 6.089844 19.675781 5.972656 19.566406 5.921875 19.496094 C 5.6875 19.171875 4.890625 19.125 4.632812 19.414062 C 4.417969 19.65625 4.488281 20.570312 4.765625 21.15625 C 4.820312 21.265625 4.886719 21.460938 4.914062 21.597656 C 5.050781 22.222656 5.132812 22.460938 5.257812 22.625 C 5.289062 22.667969 5.394531 22.859375 5.484375 23.054688 C 5.601562 23.292969 5.699219 23.449219 5.789062 23.535156 C 5.882812 23.625 5.9375 23.714844 5.972656 23.832031 C 6.007812 23.960938 6.050781 24.023438 6.179688 24.128906 C 6.265625 24.203125 6.382812 24.332031 6.4375 24.410156 C 6.492188 24.492188 6.589844 24.617188 6.660156 24.6875 C 6.726562 24.757812 6.84375 24.882812 6.921875 24.960938 C 6.996094 25.042969 7.128906 25.140625 7.210938 25.179688 C 7.292969 25.214844 7.359375 25.261719 7.359375 25.277344 C 7.359375 25.328125 7.601562 25.558594 7.679688 25.585938 C 7.722656 25.597656 7.84375 25.691406 7.953125 25.792969 C 8.066406 25.902344 8.183594 25.980469 8.242188 25.992188 C 8.367188 26.015625 8.722656 26.21875 8.847656 26.335938 C 8.980469 26.457031 9.042969 26.488281 9.429688 26.59375 C 9.617188 26.648438 9.886719 26.746094 10.027344 26.8125 C 10.429688 27.003906 10.589844 27.035156 11.648438 27.105469 C 11.9375 27.125 12.265625 27.160156 12.371094 27.1875 C 12.550781 27.230469 12.601562 27.230469 13.011719 27.167969 C 13.253906 27.132812 13.582031 27.105469 13.734375 27.105469 C 14.152344 27.105469 14.933594 26.957031 15.15625 26.839844 C 15.328125 26.746094 15.664062 26.625 15.886719 26.574219 C 16.136719 26.515625 16.308594 26.4375 16.398438 26.335938 C 16.492188 26.234375 16.691406 26.125 16.933594 26.039062 C 17.082031 25.988281 17.171875 25.929688 17.246094 25.84375 C 17.304688 25.777344 17.410156 25.695312 17.480469 25.660156 C 17.550781 25.625 17.703125 25.5 17.820312 25.390625 C 17.933594 25.277344 18.035156 25.183594 18.039062 25.183594 C 18.167969 25.183594 18.675781 24.691406 18.785156 24.460938 C 18.792969 24.445312 18.859375 24.375 18.933594 24.308594 C 19.007812 24.242188 19.132812 24.085938 19.214844 23.960938 C 19.296875 23.832031 19.414062 23.691406 19.472656 23.648438 C 19.554688 23.585938 19.59375 23.519531 19.648438 23.34375 C 19.726562 23.089844 19.84375 22.871094 19.933594 22.808594 C 20.011719 22.753906 20.144531 22.480469 20.207031 22.25 C 20.234375 22.140625 20.320312 21.929688 20.402344 21.78125 C 20.570312 21.457031 20.613281 21.273438 20.707031 20.433594 C 20.742188 20.097656 20.785156 19.753906 20.800781 19.667969 C 20.84375 19.449219 20.839844 18.464844 20.796875 18.210938 C 20.75 17.945312 20.503906 17.5625 20.34375 17.503906 C 20.089844 17.417969 19.925781 17.425781 19.824219 17.535156 "/>
<path style=" stroke:none;fill-rule:evenodd;fill:rgb(10.980392%,62.352941%,95.686275%);fill-opacity:1;" d="M 11.375 4.320312 C 11.289062 4.335938 11.070312 4.367188 10.894531 4.386719 C 10.375 4.441406 10.148438 4.5 9.855469 4.652344 C 9.703125 4.730469 9.414062 4.84375 9.210938 4.90625 C 8.878906 5.011719 8.449219 5.238281 8.382812 5.34375 C 8.375 5.359375 8.296875 5.402344 8.210938 5.4375 C 8.125 5.476562 7.964844 5.589844 7.859375 5.6875 C 7.75 5.789062 7.605469 5.902344 7.535156 5.9375 C 7.382812 6.011719 6.785156 6.550781 6.785156 6.609375 C 6.785156 6.632812 6.710938 6.710938 6.621094 6.785156 C 6.535156 6.859375 6.425781 6.988281 6.382812 7.074219 C 6.339844 7.15625 6.242188 7.277344 6.164062 7.34375 C 6.078125 7.414062 5.980469 7.539062 5.917969 7.65625 C 5.863281 7.765625 5.753906 7.921875 5.683594 8 C 5.59375 8.097656 5.515625 8.226562 5.457031 8.382812 C 5.320312 8.753906 5.28125 8.835938 5.152344 9.023438 C 5.039062 9.195312 4.953125 9.40625 4.910156 9.632812 C 4.898438 9.695312 4.820312 9.960938 4.734375 10.222656 C 4.519531 10.890625 4.519531 10.894531 4.460938 11.527344 C 4.363281 12.613281 4.453125 13.796875 4.664062 14.292969 C 4.773438 14.539062 4.832031 14.730469 4.929688 15.152344 C 4.96875 15.308594 5.027344 15.492188 5.0625 15.550781 C 5.246094 15.859375 5.316406 16.011719 5.410156 16.269531 C 5.492188 16.496094 5.542969 16.582031 5.667969 16.707031 C 5.753906 16.792969 5.871094 16.960938 5.933594 17.078125 C 5.992188 17.199219 6.082031 17.332031 6.128906 17.375 C 6.175781 17.421875 6.285156 17.558594 6.367188 17.679688 C 6.5625 17.964844 7.238281 18.652344 7.40625 18.734375 C 7.476562 18.769531 7.613281 18.871094 7.710938 18.960938 C 7.808594 19.050781 7.992188 19.179688 8.121094 19.246094 C 8.257812 19.320312 8.367188 19.398438 8.382812 19.4375 C 8.421875 19.542969 8.46875 19.570312 8.832031 19.695312 C 9.015625 19.757812 9.226562 19.84375 9.296875 19.886719 C 9.640625 20.097656 10.125 20.273438 10.671875 20.382812 C 10.742188 20.398438 10.863281 20.433594 10.941406 20.460938 C 11.199219 20.554688 11.488281 20.609375 11.757812 20.609375 C 11.90625 20.609375 12.140625 20.628906 12.277344 20.65625 C 12.867188 20.769531 13.78125 20.648438 14.070312 20.421875 C 14.421875 20.144531 14.457031 19.460938 14.128906 19.234375 C 14.09375 19.207031 13.96875 19.097656 13.851562 18.984375 C 13.738281 18.875 13.617188 18.785156 13.589844 18.785156 C 13.484375 18.785156 13.167969 18.597656 13 18.4375 C 12.90625 18.347656 12.761719 18.234375 12.679688 18.1875 C 12.597656 18.140625 12.441406 18.011719 12.332031 17.90625 C 12.226562 17.800781 12.09375 17.675781 12.035156 17.636719 C 11.976562 17.59375 11.894531 17.5 11.847656 17.425781 C 11.804688 17.355469 11.703125 17.230469 11.621094 17.152344 C 11.539062 17.070312 11.421875 16.914062 11.359375 16.800781 C 11.296875 16.6875 11.183594 16.53125 11.109375 16.449219 C 10.972656 16.304688 10.785156 15.96875 10.785156 15.867188 C 10.785156 15.839844 10.71875 15.742188 10.640625 15.65625 C 10.484375 15.484375 10.414062 15.324219 10.304688 14.921875 C 10.265625 14.777344 10.183594 14.574219 10.121094 14.472656 C 10 14.273438 9.9375 14.058594 9.902344 13.710938 C 9.890625 13.589844 9.859375 13.378906 9.835938 13.246094 C 9.8125 13.117188 9.792969 12.882812 9.792969 12.730469 C 9.792969 12.578125 9.769531 12.367188 9.742188 12.265625 C 9.683594 12.035156 9.683594 11.65625 9.742188 11.40625 C 9.769531 11.300781 9.789062 11.097656 9.789062 10.949219 C 9.792969 10.804688 9.804688 10.582031 9.824219 10.453125 C 9.84375 10.328125 9.871094 10.109375 9.890625 9.96875 C 9.953125 9.539062 10.003906 9.359375 10.121094 9.191406 C 10.195312 9.085938 10.253906 8.9375 10.300781 8.746094 C 10.410156 8.3125 10.488281 8.125 10.625 7.984375 C 10.695312 7.914062 10.777344 7.777344 10.816406 7.675781 C 10.894531 7.457031 11.054688 7.21875 11.320312 6.90625 C 11.433594 6.777344 11.585938 6.597656 11.660156 6.511719 C 11.738281 6.421875 11.828125 6.292969 11.863281 6.222656 C 11.9375 6.078125 12.015625 6 12.117188 5.96875 C 12.210938 5.941406 12.382812 5.742188 12.382812 5.664062 C 12.382812 5.632812 12.457031 5.515625 12.542969 5.40625 C 12.875 4.996094 12.742188 4.566406 12.222656 4.355469 C 12.089844 4.300781 11.601562 4.28125 11.375 4.320312 "/>
<path style=" stroke:none;fill-rule:evenodd;fill:rgb(98.431373%,98.431373%,98.431373%);fill-opacity:1;" d="M 0 16 L 0 32 L 32 32 L 32 0 L 0 0 L 0 16 M 19.761719 4.238281 C 19.917969 4.261719 20.140625 4.304688 20.257812 4.332031 C 20.371094 4.359375 20.566406 4.382812 20.6875 4.382812 C 20.933594 4.382812 21.554688 4.453125 21.796875 4.507812 C 21.878906 4.527344 22.101562 4.621094 22.292969 4.714844 C 22.484375 4.8125 22.753906 4.929688 22.894531 4.976562 C 23.035156 5.023438 23.191406 5.089844 23.238281 5.125 C 23.285156 5.15625 23.332031 5.183594 23.34375 5.183594 C 23.355469 5.183594 23.425781 5.226562 23.5 5.277344 C 23.578125 5.332031 23.722656 5.410156 23.824219 5.453125 C 23.925781 5.5 24.089844 5.609375 24.1875 5.703125 C 24.289062 5.796875 24.4375 5.90625 24.519531 5.945312 C 24.601562 5.984375 24.707031 6.0625 24.75 6.117188 C 24.792969 6.167969 24.902344 6.269531 24.992188 6.339844 C 25.082031 6.410156 25.167969 6.5 25.183594 6.539062 C 25.21875 6.632812 25.339844 6.753906 25.460938 6.820312 C 25.574219 6.878906 25.886719 7.253906 26.050781 7.523438 C 26.113281 7.628906 26.246094 7.796875 26.347656 7.898438 C 26.445312 8 26.550781 8.136719 26.578125 8.207031 C 26.644531 8.375 26.828125 8.742188 26.945312 8.945312 C 26.996094 9.03125 27.0625 9.210938 27.089844 9.34375 C 27.160156 9.664062 27.25 9.890625 27.339844 10 C 27.550781 10.242188 27.6875 11.925781 27.519531 12.160156 C 27.402344 12.324219 27.289062 12.363281 26.910156 12.367188 C 26.363281 12.371094 26.378906 12.378906 25.679688 11.691406 C 25.558594 11.570312 25.402344 11.4375 25.339844 11.390625 C 25.277344 11.347656 25.167969 11.238281 25.097656 11.152344 C 24.929688 10.941406 24.65625 10.785156 24.453125 10.785156 C 24.421875 10.785156 24.339844 10.726562 24.269531 10.652344 C 24.128906 10.507812 23.949219 10.394531 23.761719 10.335938 C 23.691406 10.3125 23.515625 10.226562 23.375 10.144531 C 23.179688 10.027344 23.046875 9.976562 22.800781 9.921875 C 22.253906 9.804688 22.042969 9.738281 21.761719 9.613281 C 21.507812 9.5 21.457031 9.488281 21.070312 9.464844 C 20.84375 9.453125 20.496094 9.421875 20.296875 9.402344 C 20.027344 9.375 19.886719 9.375 19.714844 9.402344 C 19.59375 9.421875 19.378906 9.441406 19.242188 9.441406 C 19.105469 9.441406 18.875 9.46875 18.734375 9.5 C 18.59375 9.535156 18.371094 9.578125 18.238281 9.597656 C 18.105469 9.613281 17.945312 9.652344 17.886719 9.675781 C 17.824219 9.703125 17.621094 9.761719 17.4375 9.808594 C 16.949219 9.929688 16.71875 10.011719 16.652344 10.085938 C 16.566406 10.175781 16.394531 10.257812 16.136719 10.332031 C 15.847656 10.410156 15.742188 10.46875 15.5625 10.640625 C 15.480469 10.71875 15.398438 10.785156 15.378906 10.785156 C 15.3125 10.785156 14.953125 11.046875 14.863281 11.167969 C 14.8125 11.234375 14.707031 11.324219 14.632812 11.367188 C 14.4375 11.476562 13.929688 11.980469 13.839844 12.15625 C 13.800781 12.238281 13.6875 12.386719 13.589844 12.484375 C 13.476562 12.601562 13.367188 12.757812 13.292969 12.914062 C 13.226562 13.050781 13.125 13.203125 13.066406 13.257812 C 13.007812 13.308594 12.910156 13.433594 12.851562 13.53125 C 12.796875 13.632812 12.6875 13.753906 12.613281 13.808594 C 12.542969 13.859375 12.394531 13.96875 12.285156 14.046875 L 12.089844 14.1875 L 11.859375 14.132812 C 11.476562 14.042969 11.265625 13.746094 11.261719 13.304688 C 11.261719 13.136719 11.238281 13 11.175781 12.8125 L 11.085938 12.554688 L 11.164062 12.363281 C 11.226562 12.214844 11.246094 12.089844 11.265625 11.761719 C 11.324219 10.703125 11.386719 10.316406 11.554688 9.957031 C 11.605469 9.847656 11.714844 9.566406 11.789062 9.339844 C 11.882812 9.058594 11.964844 8.882812 12.03125 8.804688 C 12.160156 8.652344 12.300781 8.378906 12.363281 8.15625 C 12.40625 8.011719 12.445312 7.953125 12.546875 7.871094 C 12.617188 7.8125 12.710938 7.710938 12.757812 7.640625 C 12.800781 7.570312 12.914062 7.429688 13.011719 7.324219 C 13.105469 7.222656 13.183594 7.117188 13.183594 7.09375 C 13.183594 7.027344 13.496094 6.695312 13.796875 6.445312 C 13.953125 6.316406 14.117188 6.171875 14.160156 6.117188 C 14.203125 6.066406 14.332031 5.976562 14.441406 5.917969 C 14.660156 5.808594 14.785156 5.707031 14.785156 5.644531 C 14.785156 5.582031 14.957031 5.472656 15.144531 5.417969 C 15.359375 5.355469 15.539062 5.261719 15.644531 5.164062 C 15.78125 5.035156 15.90625 4.96875 16.113281 4.914062 C 16.21875 4.886719 16.425781 4.8125 16.574219 4.75 C 17.230469 4.472656 17.566406 4.398438 18.289062 4.371094 C 18.664062 4.355469 19.046875 4.296875 19.457031 4.195312 C 19.464844 4.195312 19.601562 4.214844 19.761719 4.238281 M 12.222656 4.355469 C 12.742188 4.566406 12.875 4.996094 12.542969 5.40625 C 12.457031 5.515625 12.382812 5.632812 12.382812 5.664062 C 12.382812 5.742188 12.210938 5.941406 12.117188 5.96875 C 12.015625 6 11.9375 6.078125 11.863281 6.222656 C 11.828125 6.292969 11.738281 6.421875 11.660156 6.511719 C 11.585938 6.597656 11.433594 6.777344 11.320312 6.90625 C 11.054688 7.21875 10.894531 7.457031 10.816406 7.675781 C 10.777344 7.777344 10.695312 7.914062 10.625 7.984375 C 10.488281 8.125 10.410156 8.3125 10.300781 8.746094 C 10.253906 8.9375 10.195312 9.085938 10.121094 9.191406 C 10.003906 9.359375 9.953125 9.539062 9.890625 9.96875 C 9.871094 10.109375 9.84375 10.328125 9.824219 10.453125 C 9.804688 10.582031 9.792969 10.804688 9.789062 10.949219 C 9.789062 11.097656 9.769531 11.300781 9.742188 11.40625 C 9.683594 11.65625 9.683594 12.035156 9.742188 12.265625 C 9.769531 12.367188 9.792969 12.578125 9.792969 12.730469 C 9.792969 12.882812 9.8125 13.117188 9.835938 13.246094 C 9.859375 13.378906 9.890625 13.589844 9.902344 13.710938 C 9.9375 14.058594 10 14.273438 10.121094 14.472656 C 10.183594 14.574219 10.265625 14.777344 10.304688 14.921875 C 10.414062 15.324219 10.484375 15.484375 10.640625 15.65625 C 10.71875 15.742188 10.785156 15.839844 10.785156 15.867188 C 10.785156 15.96875 10.972656 16.304688 11.109375 16.449219 C 11.183594 16.53125 11.296875 16.6875 11.359375 16.800781 C 11.421875 16.914062 11.539062 17.070312 11.621094 17.152344 C 11.703125 17.230469 11.804688 17.355469 11.847656 17.425781 C 11.894531 17.5 11.976562 17.59375 12.035156 17.636719 C 12.09375 17.675781 12.226562 17.800781 12.332031 17.90625 C 12.441406 18.011719 12.597656 18.140625 12.679688 18.1875 C 12.761719 18.234375 12.90625 18.347656 13 18.4375 C 13.167969 18.597656 13.484375 18.785156 13.589844 18.785156 C 13.617188 18.785156 13.738281 18.875 13.851562 18.984375 C 13.96875 19.097656 14.09375 19.207031 14.128906 19.234375 C 14.457031 19.460938 14.421875 20.144531 14.070312 20.421875 C 13.78125 20.648438 12.867188 20.769531 12.277344 20.65625 C 12.140625 20.628906 11.90625 20.609375 11.757812 20.609375 C 11.488281 20.609375 11.199219 20.554688 10.941406 20.460938 C 10.863281 20.433594 10.742188 20.398438 10.671875 20.382812 C 10.125 20.273438 9.640625 20.097656 9.296875 19.886719 C 9.226562 19.84375 9.015625 19.757812 8.832031 19.695312 C 8.46875 19.570312 8.421875 19.542969 8.382812 19.4375 C 8.367188 19.398438 8.257812 19.320312 8.121094 19.246094 C 7.992188 19.179688 7.808594 19.050781 7.710938 18.960938 C 7.613281 18.871094 7.476562 18.769531 7.40625 18.734375 C 7.238281 18.652344 6.5625 17.964844 6.367188 17.679688 C 6.285156 17.558594 6.175781 17.421875 6.128906 17.375 C 6.082031 17.332031 5.992188 17.199219 5.933594 17.078125 C 5.871094 16.960938 5.753906 16.792969 5.667969 16.707031 C 5.542969 16.582031 5.492188 16.496094 5.410156 16.269531 C 5.316406 16.011719 5.246094 15.859375 5.0625 15.550781 C 5.027344 15.492188 4.96875 15.308594 4.929688 15.152344 C 4.832031 14.730469 4.773438 14.539062 4.664062 14.292969 C 4.453125 13.796875 4.363281 12.613281 4.460938 11.527344 C 4.519531 10.894531 4.519531 10.890625 4.734375 10.222656 C 4.820312 9.960938 4.898438 9.695312 4.910156 9.632812 C 4.953125 9.40625 5.039062 9.195312 5.152344 9.023438 C 5.28125 8.835938 5.320312 8.753906 5.457031 8.382812 C 5.515625 8.226562 5.59375 8.097656 5.683594 8 C 5.753906 7.921875 5.863281 7.765625 5.917969 7.65625 C 5.980469 7.539062 6.078125 7.414062 6.164062 7.34375 C 6.242188 7.277344 6.339844 7.15625 6.382812 7.074219 C 6.425781 6.988281 6.535156 6.859375 6.621094 6.785156 C 6.710938 6.710938 6.785156 6.632812 6.785156 6.609375 C 6.785156 6.550781 7.382812 6.011719 7.535156 5.9375 C 7.605469 5.902344 7.75 5.789062 7.859375 5.6875 C 7.964844 5.589844 8.125 5.476562 8.210938 5.4375 C 8.296875 5.402344 8.375 5.359375 8.382812 5.34375 C 8.449219 5.238281 8.878906 5.011719 9.210938 4.90625 C 9.414062 4.84375 9.703125 4.730469 9.855469 4.652344 C 10.148438 4.5 10.375 4.441406 10.894531 4.386719 C 11.070312 4.367188 11.289062 4.335938 11.375 4.320312 C 11.601562 4.28125 12.089844 4.300781 12.222656 4.355469 M 19.890625 10.847656 C 20.65625 10.910156 20.980469 10.964844 21.195312 11.070312 C 21.410156 11.171875 21.546875 11.210938 22.117188 11.34375 C 22.347656 11.394531 22.539062 11.457031 22.609375 11.507812 C 22.671875 11.550781 22.730469 11.585938 22.738281 11.585938 C 22.75 11.585938 22.777344 11.605469 22.800781 11.628906 C 22.828125 11.65625 22.988281 11.730469 23.15625 11.792969 C 23.398438 11.886719 23.5 11.945312 23.613281 12.0625 C 23.722656 12.167969 23.839844 12.242188 24.03125 12.320312 C 24.207031 12.394531 24.320312 12.460938 24.363281 12.523438 C 24.402344 12.574219 24.546875 12.703125 24.6875 12.808594 C 24.828125 12.914062 25.007812 13.074219 25.085938 13.164062 C 25.160156 13.253906 25.273438 13.363281 25.332031 13.40625 C 25.394531 13.449219 25.472656 13.53125 25.507812 13.585938 C 25.542969 13.644531 25.660156 13.773438 25.765625 13.875 C 25.917969 14.011719 25.996094 14.121094 26.101562 14.332031 C 26.191406 14.519531 26.285156 14.65625 26.390625 14.753906 C 26.496094 14.855469 26.558594 14.945312 26.589844 15.042969 C 26.652344 15.265625 26.789062 15.5625 26.867188 15.648438 C 26.96875 15.765625 27.0625 15.964844 27.085938 16.128906 C 27.132812 16.421875 27.207031 16.664062 27.351562 16.976562 C 27.570312 17.457031 27.582031 17.570312 27.582031 19.121094 C 27.582031 20.6875 27.566406 20.855469 27.359375 21.316406 C 27.285156 21.480469 27.175781 21.808594 27.113281 22.046875 C 27.015625 22.417969 26.980469 22.503906 26.863281 22.664062 C 26.769531 22.789062 26.691406 22.949219 26.621094 23.15625 C 26.558594 23.347656 26.488281 23.496094 26.441406 23.539062 C 26.398438 23.578125 26.324219 23.648438 26.277344 23.691406 C 26.230469 23.734375 26.140625 23.878906 26.074219 24.003906 C 25.980469 24.191406 25.878906 24.316406 25.578125 24.617188 C 25.371094 24.824219 25.15625 25.039062 25.105469 25.089844 C 24.84375 25.351562 24.582031 25.582031 24.480469 25.632812 C 24.417969 25.664062 24.304688 25.757812 24.230469 25.835938 C 24.144531 25.929688 24.007812 26.023438 23.847656 26.101562 C 23.710938 26.167969 23.570312 26.246094 23.535156 26.28125 C 23.375 26.429688 23.164062 26.535156 22.734375 26.671875 C 22.480469 26.753906 22.265625 26.835938 22.253906 26.855469 C 22.210938 26.921875 21.886719 27.035156 21.628906 27.070312 C 21.480469 27.09375 21.152344 27.152344 20.894531 27.207031 C 19.984375 27.398438 19.4375 27.175781 19.34375 26.582031 L 19.304688 26.332031 L 19.441406 26.183594 C 19.515625 26.101562 19.605469 25.972656 19.644531 25.898438 C 19.679688 25.824219 19.753906 25.726562 19.8125 25.675781 C 19.917969 25.578125 20.15625 25.339844 20.25 25.230469 C 20.28125 25.195312 20.375 25.113281 20.453125 25.050781 C 20.535156 24.984375 20.644531 24.855469 20.695312 24.761719 C 20.75 24.667969 20.851562 24.539062 20.921875 24.472656 C 21.058594 24.351562 21.183594 24.140625 21.183594 24.042969 C 21.183594 23.949219 21.339844 23.703125 21.457031 23.609375 C 21.542969 23.539062 21.582031 23.457031 21.664062 23.207031 C 21.722656 23.035156 21.816406 22.800781 21.871094 22.6875 C 22.0625 22.3125 22.238281 21.535156 22.238281 21.09375 C 22.238281 20.898438 22.257812 20.78125 22.320312 20.609375 C 22.441406 20.277344 22.425781 19.125 22.292969 18.464844 C 22.246094 18.226562 22.183594 17.886719 22.160156 17.710938 C 22.109375 17.363281 21.992188 16.964844 21.914062 16.875 C 21.816406 16.761719 21.707031 16.496094 21.601562 16.101562 C 21.582031 16.035156 21.488281 15.875 21.390625 15.746094 C 21.296875 15.617188 21.207031 15.476562 21.195312 15.429688 C 21.164062 15.289062 21.039062 15.09375 20.863281 14.910156 C 20.769531 14.816406 20.675781 14.6875 20.648438 14.625 C 20.625 14.5625 20.5 14.410156 20.378906 14.289062 C 20.253906 14.164062 20.121094 14.03125 20.085938 13.988281 C 20.046875 13.949219 19.957031 13.875 19.886719 13.828125 C 19.816406 13.78125 19.707031 13.660156 19.640625 13.5625 C 19.554688 13.433594 19.472656 13.355469 19.335938 13.28125 C 19.234375 13.222656 19.09375 13.121094 19.023438 13.058594 C 18.953125 12.992188 18.773438 12.882812 18.621094 12.808594 C 18.425781 12.714844 18.316406 12.640625 18.246094 12.550781 C 18.1875 12.476562 18.113281 12.410156 18.074219 12.398438 C 17.695312 12.277344 17.605469 11.601562 17.917969 11.207031 C 18.191406 10.863281 18.761719 10.757812 19.890625 10.847656 M 20.21875 17.3125 C 20.84375 17.402344 21.265625 18.679688 20.996094 19.664062 C 20.921875 19.933594 20.824219 20.457031 20.738281 21.082031 C 20.671875 21.554688 20.570312 21.855469 20.445312 21.972656 C 20.410156 22 20.382812 22.050781 20.382812 22.078125 C 20.382812 22.242188 20.179688 22.726562 20.015625 22.941406 C 19.921875 23.066406 19.816406 23.246094 19.78125 23.339844 C 19.707031 23.53125 19.582031 23.734375 19.492188 23.796875 C 19.460938 23.816406 19.378906 23.933594 19.3125 24.046875 C 19.242188 24.164062 19.097656 24.347656 18.984375 24.457031 C 18.875 24.566406 18.785156 24.667969 18.785156 24.683594 C 18.785156 24.773438 18.542969 25.023438 18.347656 25.136719 C 18.226562 25.207031 18.035156 25.359375 17.917969 25.476562 C 17.804688 25.589844 17.660156 25.710938 17.597656 25.742188 C 17.539062 25.777344 17.417969 25.863281 17.332031 25.9375 C 17.246094 26.011719 17.109375 26.097656 17.027344 26.128906 C 16.839844 26.199219 16.695312 26.285156 16.511719 26.433594 C 16.347656 26.566406 16.359375 26.5625 15.878906 26.703125 C 15.683594 26.761719 15.480469 26.839844 15.433594 26.871094 C 15.21875 27.023438 14.464844 27.183594 13.761719 27.230469 C 13.390625 27.257812 13.207031 27.289062 12.734375 27.402344 C 12.5625 27.445312 12.542969 27.445312 12.367188 27.367188 C 12.242188 27.316406 12.074219 27.28125 11.859375 27.261719 C 10.59375 27.144531 10.191406 27.070312 9.859375 26.894531 C 9.742188 26.835938 9.484375 26.734375 9.285156 26.671875 C 8.871094 26.542969 8.855469 26.535156 8.679688 26.390625 C 8.605469 26.328125 8.402344 26.207031 8.226562 26.113281 C 8.050781 26.023438 7.890625 25.921875 7.871094 25.890625 C 7.855469 25.855469 7.753906 25.777344 7.648438 25.710938 C 7.542969 25.648438 7.394531 25.523438 7.320312 25.433594 C 7.230469 25.328125 7.125 25.246094 7.019531 25.199219 C 6.921875 25.152344 6.824219 25.082031 6.78125 25.019531 C 6.742188 24.960938 6.640625 24.847656 6.5625 24.769531 C 6.480469 24.6875 6.390625 24.570312 6.359375 24.503906 C 6.328125 24.4375 6.234375 24.332031 6.15625 24.265625 C 6.058594 24.183594 5.972656 24.070312 5.898438 23.921875 C 5.832031 23.785156 5.730469 23.644531 5.644531 23.566406 C 5.535156 23.46875 5.472656 23.371094 5.371094 23.136719 C 5.300781 22.96875 5.210938 22.789062 5.167969 22.734375 C 5.042969 22.566406 4.992188 22.441406 4.894531 22.03125 C 4.839844 21.789062 4.742188 21.507812 4.65625 21.316406 C 4.363281 20.679688 4.308594 19.617188 4.550781 19.34375 C 4.851562 19 5.863281 19.019531 5.972656 19.371094 C 6.003906 19.472656 6.070312 19.542969 6.253906 19.644531 C 6.351562 19.699219 6.453125 19.792969 6.503906 19.867188 C 6.550781 19.9375 6.675781 20.050781 6.777344 20.117188 C 6.878906 20.179688 7.03125 20.292969 7.121094 20.367188 C 7.207031 20.441406 7.410156 20.578125 7.566406 20.671875 C 7.726562 20.765625 7.902344 20.886719 7.957031 20.941406 C 8.046875 21.035156 8.289062 21.144531 8.515625 21.195312 C 8.5625 21.207031 8.671875 21.265625 8.757812 21.328125 C 9.023438 21.519531 9.144531 21.566406 9.53125 21.644531 C 9.734375 21.6875 10.078125 21.777344 10.289062 21.847656 C 10.59375 21.949219 10.742188 21.980469 11.007812 21.996094 C 11.191406 22.007812 11.511719 22.039062 11.71875 22.066406 C 12.074219 22.113281 12.128906 22.113281 12.726562 22.050781 C 13.074219 22.015625 13.421875 21.984375 13.5 21.984375 C 13.589844 21.984375 13.714844 21.945312 13.867188 21.875 C 13.992188 21.8125 14.210938 21.742188 14.355469 21.714844 C 14.894531 21.613281 15.125 21.53125 15.328125 21.375 C 15.46875 21.265625 15.609375 21.203125 15.839844 21.152344 C 16.074219 21.097656 16.152344 21.054688 16.320312 20.886719 C 16.417969 20.789062 16.550781 20.703125 16.734375 20.625 C 16.9375 20.535156 17.046875 20.464844 17.152344 20.351562 C 17.230469 20.265625 17.339844 20.175781 17.394531 20.148438 C 17.449219 20.121094 17.535156 20.046875 17.585938 19.984375 C 17.71875 19.820312 17.894531 19.640625 17.996094 19.574219 C 18.046875 19.539062 18.125 19.445312 18.175781 19.363281 C 18.226562 19.28125 18.332031 19.171875 18.410156 19.113281 C 18.511719 19.042969 18.589844 18.945312 18.6875 18.765625 C 18.765625 18.625 18.882812 18.453125 18.949219 18.378906 C 19.015625 18.304688 19.121094 18.144531 19.183594 18.019531 C 19.25 17.882812 19.339844 17.761719 19.410156 17.707031 C 19.476562 17.65625 19.558594 17.582031 19.597656 17.539062 C 19.695312 17.425781 19.90625 17.28125 19.964844 17.28125 C 19.992188 17.28125 20.109375 17.292969 20.21875 17.3125 "/>
</g>
</svg>
